<svg width="65" height="42" viewBox="0 0 65 42" fill="none" xmlns="http://www.w3.org/2000/svg">
<path d="M7.89576 18.7235C8.03054 17.9149 8.16532 17.1736 8.25517 16.4997C8.34502 15.8258 8.38995 15.3541 8.38995 15.0396C8.70444 14.9048 9.08631 14.7475 9.51311 14.5454C9.85005 14.3881 10.2095 14.2309 10.5464 14.0961C10.8833 13.9389 11.1754 13.8266 11.4225 13.7592C11.6696 13.6693 11.9391 13.557 12.2311 13.4447C12.5232 13.3324 12.8376 13.2201 13.1746 13.1078C13.6688 12.9281 14.163 12.7483 14.6347 12.5686C15.1289 12.4114 15.5557 12.2542 15.9375 12.1418L16.0274 12.1194C16.1846 12.0745 16.3643 12.0295 16.5216 11.9846C16.7013 11.9397 16.8585 11.8947 17.0158 11.8498L17.2629 11.7824C17.3976 11.76 17.5549 11.76 17.757 11.7824C17.8918 11.8049 18.0715 11.8049 18.2737 11.7824H18.2962C18.6106 11.715 18.7679 11.4904 18.7679 11.1085L18.7454 11.0636C18.7679 10.794 18.6556 10.5694 18.4309 10.3673C18.2063 10.1651 18.0266 10.0303 17.8469 9.94045C17.4875 9.76074 17.1056 9.69336 16.7462 9.69336C16.3868 9.71582 16.0723 9.76075 15.8252 9.80567C15.6904 9.8506 15.5557 9.87306 15.4433 9.91799C15.331 9.96292 15.2187 10.0078 15.0839 10.0528C14.6796 10.1875 14.2079 10.3673 13.6463 10.5694C13.1072 10.7941 12.5681 10.9962 12.0739 11.2209C10.2095 12.052 8.36749 12.9281 6.54798 13.7817C4.70601 14.6577 2.90897 15.7135 1.13439 16.9489C0.909755 17.1062 0.864833 17.2859 0.977148 17.5105C1.067 17.6902 1.20178 17.825 1.38148 17.9598C1.58365 18.0945 1.76335 18.117 1.96552 18.0721C2.01045 18.0721 2.03291 18.0496 2.03291 18.0496C2.03291 18.0272 2.05537 18.0271 2.1003 18.0271C2.77419 17.6453 3.44808 17.3083 4.14443 16.9714C4.81832 16.6344 5.49222 16.32 6.14365 16.0055C5.76178 17.4656 5.40237 18.9257 5.08788 20.3858C4.75094 21.8234 4.45892 23.2835 4.1669 24.7211C4.14443 24.7436 4.14444 24.811 4.12197 24.9233C4.12197 24.9907 4.09951 25.0356 4.09951 25.0805C3.24591 25.5747 2.48217 26.0914 1.83074 26.608C1.17931 27.1247 0.617734 27.6862 0.101084 28.2927C-0.0336946 28.4725 -0.0336946 28.6747 0.101084 28.8993C0.190936 29.0341 0.32572 29.1464 0.527887 29.2587C0.707592 29.371 0.887293 29.3934 1.04453 29.371C1.11192 29.3485 1.17931 29.326 1.22424 29.3036C1.96552 28.6746 2.77419 28.0906 3.62779 27.5515L3.58286 27.8211C3.53793 28.2479 3.44808 28.6522 3.38069 29.079C3.29084 29.5057 3.22345 29.9326 3.15606 30.3369C3.11113 30.584 3.06621 30.8086 3.02128 31.0557C2.97635 31.3028 2.90897 31.5275 2.86404 31.7521C2.75173 32.3811 2.61695 33.0549 2.50463 33.7064C2.39232 34.3578 2.30247 35.0317 2.28 35.7056C2.28 35.9302 2.34739 36.1548 2.5271 36.357C2.68434 36.5592 2.88651 36.7164 3.08867 36.8063C2.9539 36.8961 2.81911 36.9635 2.7068 37.0309C2.59448 37.0983 2.45971 37.1657 2.32493 37.233C2.05537 37.3454 1.96552 37.57 2.07784 37.8845C2.19015 38.1765 2.41478 38.4236 2.77419 38.6482C3.1336 38.8729 3.44808 38.9627 3.7401 38.8953L3.94227 38.8504C4.09951 38.7605 4.39152 38.5809 4.7734 38.3338C5.15527 38.0867 5.55961 37.8171 5.98641 37.5251C6.4132 37.2331 6.79507 36.9635 7.17694 36.694C7.55882 36.4244 7.82838 36.2447 7.98562 36.1324C8.03055 36.1324 8.07547 36.1099 8.12039 36.065C8.16532 36.0425 8.25517 35.9976 8.34503 35.9302C10.2319 34.8295 11.8717 33.9534 13.2869 33.302C14.6796 32.6506 15.8477 32.2238 16.7687 31.9991C17.3302 31.8644 17.7795 31.8195 18.1165 31.8644C18.2288 31.8869 18.3186 31.8869 18.3411 31.8644C18.6331 31.797 18.7903 31.5948 18.7903 31.2354C18.7903 30.9883 18.7229 30.7637 18.5882 30.584C18.4534 30.4043 18.2737 30.2471 18.0715 30.1123C17.8694 29.9775 17.6447 29.8652 17.3976 29.7978C17.1505 29.7304 16.9259 29.663 16.7237 29.6405C16.544 29.5956 16.2969 29.6181 16.0274 29.6855C15.6006 29.7754 15.1513 29.955 14.6571 30.1797C14.1629 30.4043 13.7362 30.6065 13.3768 30.8087C13.1971 30.8985 13.0847 30.9434 13.0173 30.9883C12.613 31.1905 12.029 31.4825 11.2652 31.9093C10.5239 32.3361 9.73773 32.7629 8.9066 33.2346C8.07547 33.7063 7.28927 34.1781 6.52552 34.6498C5.76178 35.1215 5.15527 35.5034 4.70601 35.7954C4.75094 35.2339 4.81833 34.6723 4.90818 34.1331C5.0205 33.594 5.13281 33.0549 5.24513 32.5158C5.29005 32.2463 5.35744 31.9992 5.42483 31.7296C5.49222 31.46 5.53715 31.213 5.58207 30.9434C5.64946 30.5391 5.73931 30.1347 5.8067 29.7304C5.87409 29.3261 5.94147 28.9217 6.00886 28.5174C6.07625 28.113 6.1661 27.7087 6.23349 27.2595C6.30088 26.8327 6.36827 26.4059 6.45812 26.0015C7.0197 25.732 7.6936 25.4175 8.43488 25.0581C9.17616 24.6987 9.9399 24.3393 10.7261 24.0023C11.5123 23.6654 12.2761 23.3509 13.0173 23.0364C13.7586 22.7444 14.41 22.4973 14.9716 22.3401C15.4209 22.2053 15.5781 21.9133 15.4433 21.5089C15.376 21.1944 15.1738 20.9249 14.8369 20.6778C14.4999 20.4307 14.1854 20.3409 13.8709 20.4082L13.7811 20.4307C13.4666 20.543 13.0847 20.7003 12.6804 20.8575C12.2536 21.0372 11.8268 21.2169 11.3551 21.4415C10.9058 21.6662 10.4341 21.8908 9.96237 22.1154C9.49064 22.3625 9.04138 22.5872 8.61458 22.7893C8.3001 22.9466 8.00808 23.0814 7.71606 23.2161C7.42404 23.3509 7.17695 23.4632 6.92986 23.598C7.0871 22.8792 7.24434 22.0705 7.42405 21.1945C7.58129 20.3858 7.76099 19.5547 7.89576 18.7235Z" fill="#2D2D2D"/>
<path d="M31.4146 14.9272C31.5044 15.1519 31.6617 15.354 31.8638 15.5113C31.9537 15.5786 32.066 15.646 32.2233 15.6685C32.358 15.7134 32.4928 15.7134 32.6051 15.6685C32.7174 15.646 32.8073 15.5787 32.8747 15.4888C32.9421 15.3989 32.9421 15.2642 32.8522 15.0845C32.8073 15.0171 32.7848 14.9047 32.7399 14.77C32.7399 14.6801 32.7624 14.5903 32.8073 14.5004C32.8522 14.4106 32.9196 14.3207 32.9645 14.2309C33.0319 14.1186 33.1218 14.0062 33.1892 13.8714C33.279 13.7367 33.3689 13.6244 33.4363 13.4896C33.571 13.265 33.5935 13.0403 33.4812 12.7932C33.3689 12.5461 33.1892 12.344 32.9645 12.1867C32.7399 12.0295 32.4928 11.9172 32.2233 11.8947C31.9537 11.8723 31.7515 11.9396 31.5718 12.1643C31.3697 12.4563 31.2349 12.7932 31.1675 13.1302C31.1001 13.4896 31.1001 13.849 31.1675 14.2084C31.2573 14.4555 31.3247 14.7026 31.4146 14.9272Z" fill="#2D2D2D"/>
<path d="M57.1123 14.2099C56.9326 14.2099 56.7304 14.2998 56.5058 14.4795C56.2812 14.6592 56.1015 14.9063 55.9667 15.2657C55.6747 15.8946 55.4051 16.4562 55.158 16.9279C54.9109 17.3997 54.6638 17.8489 54.3943 18.2757C54.1472 18.7025 53.8552 19.1068 53.5631 19.4887C53.2711 19.893 52.9342 20.3199 52.5748 20.7467C52.6871 19.6235 52.7994 18.5677 52.9117 17.5793C53.024 16.591 53.0689 15.5577 53.0689 14.4345C53.0914 14.2548 53.0016 14.0751 52.8443 13.8954C52.6646 13.7157 52.4849 13.5585 52.2603 13.4686C52.0357 13.3788 51.8335 13.3338 51.6088 13.3563C51.4067 13.3788 51.2719 13.5135 51.2045 13.7606C51.1596 13.9179 51.1371 14.0751 51.0922 14.2324C51.0697 14.3896 51.0248 14.5469 50.9799 14.7041C50.8002 15.2432 50.6429 15.7149 50.5306 16.0968C50.4183 16.4787 50.306 16.8381 50.1937 17.1975C50.1038 17.5569 49.9915 17.9163 49.8567 18.2757C49.722 18.6351 49.5872 19.0619 49.4075 19.5561C49.0256 20.5669 48.6887 21.3756 48.4191 21.9596C48.1271 22.5661 47.88 23.0154 47.6554 23.3074C47.4307 23.6219 47.2735 23.8241 47.1387 23.8915C47.0039 23.9813 46.9141 23.9813 46.8692 23.9364C46.7344 23.8241 46.667 23.6668 46.6445 23.5096C46.6221 23.3299 46.6221 23.1951 46.6221 23.0603C46.5996 22.4988 46.6445 22.0046 46.7119 21.5329C46.7793 21.0611 46.8691 20.5669 46.9365 20.0278C46.9815 19.6684 47.0264 19.3315 47.0713 19.0394C47.1162 18.725 47.1612 18.4329 47.2061 18.1409C47.251 17.8489 47.2959 17.5344 47.3184 17.2424C47.3409 16.9279 47.3858 16.6135 47.4532 16.254C47.4756 16.0294 47.3858 15.7823 47.2061 15.5577C47.0264 15.333 46.8018 15.1309 46.5547 15.0186C46.3076 14.8838 46.0605 14.8389 45.8359 14.8613C45.6112 14.8838 45.4764 15.041 45.4315 15.3106C45.3641 15.7598 45.2967 16.1642 45.2518 16.5236C45.2069 16.9055 45.1395 17.2649 45.0946 17.6243C45.0946 17.6917 45.0721 17.7591 45.0721 17.804V17.8265C44.6678 18.8373 44.3084 19.6909 43.9939 20.3648C43.6794 21.0387 43.32 21.443 42.8932 21.6002C43.028 20.9713 43.0954 20.3423 43.0954 19.7358C43.0954 19.1293 42.9381 18.5453 42.6461 17.9612C42.4664 17.5794 42.2193 17.2424 41.9048 16.9729C41.5903 16.6808 41.2534 16.4787 40.894 16.3439C40.5346 16.2091 40.1302 16.1642 39.7484 16.2091C39.344 16.2765 38.9622 16.4337 38.6252 16.7258L38.4904 16.8381H38.468C37.9738 16.9953 37.5245 17.2873 37.1427 17.7141C36.7608 18.1409 36.4463 18.6351 36.1992 19.1967C36.1094 19.3989 36.042 19.601 35.9521 19.8032C35.9521 19.8032 35.9521 19.8257 35.9296 19.8257C35.5702 20.6343 35.2782 21.2408 35.0536 21.7126C34.829 22.1618 34.6268 22.5437 34.4471 22.8582C34.2674 23.1726 34.0877 23.4647 33.908 23.7118C33.7283 23.9589 33.5036 24.2733 33.2341 24.6552C33.2341 24.4306 33.2341 24.1386 33.2341 23.8241C33.2341 23.4871 33.2341 23.2176 33.2341 23.0154C33.2565 22.3191 33.3239 21.6227 33.4138 20.9263C33.5036 20.23 33.5261 19.5561 33.5036 18.8598C33.5036 18.6801 33.4138 18.4779 33.2341 18.2982C33.0768 18.1185 32.8747 17.9837 32.6725 17.8938C32.4703 17.804 32.2682 17.7591 32.066 17.804C31.8638 17.8264 31.7291 17.9612 31.6392 18.1859C31.5718 18.2533 31.4595 18.4329 31.3247 18.7025C31.1899 18.9721 31.0552 19.2866 30.8979 19.6235C30.7407 19.9605 30.6059 20.2974 30.4711 20.6343C30.3813 20.859 30.3139 21.0387 30.2465 21.2184C30.224 21.2633 30.2016 21.2858 30.2016 21.3082C30.0219 21.6901 29.7972 22.1394 29.5726 22.656C29.348 23.1727 29.1009 23.7118 28.8538 24.2958C28.6067 24.8798 28.3371 25.3965 28.09 25.8682C27.843 26.3399 27.5959 26.7218 27.3712 27.0363C27.1466 27.3283 26.9444 27.4631 26.7872 27.4406C26.7647 27.1261 26.7872 26.6769 26.8546 26.1378C26.922 25.5987 27.0118 25.0146 27.1241 24.4081C27.2364 23.8016 27.3488 23.1727 27.4835 22.5437C27.5959 21.9147 27.7082 21.3532 27.7756 20.859C27.8205 20.567 27.7531 20.3198 27.5734 20.1177C27.3937 19.8931 27.1915 19.7358 26.9444 19.6235C26.8995 19.601 26.8546 19.5786 26.8321 19.5561C26.8096 19.5336 26.7647 19.5336 26.7198 19.4887C26.4727 19.3539 26.2481 19.3315 26.001 19.3989C25.7763 19.4663 25.6191 19.601 25.5742 19.7807C25.0126 20.522 24.4959 21.2184 23.9793 21.8923C23.4626 22.5437 22.9909 23.285 22.4967 24.1161C22.5192 23.5995 22.5641 23.1727 22.5641 22.8357C22.5866 22.4763 22.5641 22.072 22.5641 21.5778C22.5641 21.3981 22.4743 21.1959 22.2946 20.9937C22.1149 20.7916 21.9127 20.6343 21.6881 20.522C21.4634 20.4097 21.2388 20.3872 21.0142 20.4322C20.7896 20.4771 20.6548 20.6119 20.5649 20.859C20.3403 21.5104 20.1606 22.1169 20.0707 22.656C19.9809 23.2176 19.8686 23.8241 19.8012 24.5204C19.8012 24.6327 19.8236 24.7675 19.9135 24.9023C20.0033 25.0371 20.1157 25.1494 20.2504 25.2168C20.228 25.419 20.2055 25.5987 20.1831 25.8008C20.1606 25.9805 20.1606 26.1827 20.1381 26.3624C20.0932 26.7892 20.0483 27.1935 20.0034 27.5754C19.9584 27.9573 19.936 28.3167 19.9135 28.6986C19.891 29.058 19.891 29.4399 19.936 29.7993C19.9584 30.1587 20.0483 30.563 20.1606 30.9898C20.228 31.1695 20.3628 31.3267 20.5649 31.5064C20.7671 31.6637 20.9917 31.776 21.2163 31.8434C21.441 31.9108 21.6431 31.9108 21.8229 31.821C22.0026 31.7536 22.0699 31.5738 22.0699 31.2818C22.025 30.2036 22.1149 29.2377 22.362 28.4065C22.5866 27.5754 22.9685 26.6769 23.4627 25.7334C23.575 25.5088 23.7097 25.2617 23.8445 24.9922C23.9793 24.7226 24.1141 24.453 24.2713 24.161C24.4286 23.8915 24.5633 23.6219 24.7206 23.3524C24.8778 23.0828 25.0126 22.8582 25.1474 22.656C25.1923 22.6111 25.2597 22.5212 25.3271 22.4089C25.2148 23.0379 25.1025 23.6444 24.9677 24.2509C24.8329 24.8574 24.7431 25.4863 24.6757 26.1153C24.6532 26.3849 24.6532 26.6769 24.6757 26.9914C24.6757 27.3059 24.7206 27.6204 24.7655 27.9348C24.8104 28.2493 24.9003 28.5413 25.0351 28.8109C25.1474 29.0804 25.3271 29.3275 25.5517 29.5297C25.7539 29.6869 26.001 29.7993 26.3155 29.8442C26.6299 29.8891 26.8995 29.8442 27.1466 29.687C27.4162 29.5297 27.6632 29.3051 27.9103 29.058C28.135 28.7884 28.3596 28.4964 28.5618 28.2044C28.7639 27.8899 28.9436 27.5754 29.0784 27.2609C29.2357 26.9465 29.3929 26.632 29.5277 26.3849C29.64 26.2052 29.7298 26.0255 29.8197 25.8233C29.9095 25.6211 29.9994 25.4414 30.1117 25.2393C30.2016 25.082 30.3139 24.8125 30.4711 24.4081C30.6284 24.0038 30.7856 23.5995 30.9428 23.1277C31.0327 22.8582 31.0776 22.6111 31.145 22.364C31.145 22.5212 31.1226 22.6785 31.1226 22.8582C31.1226 23.1277 31.1226 23.3748 31.1001 23.6219C31.1001 23.869 31.0776 24.0262 31.0776 24.0936C31.0552 24.7001 31.0776 25.2842 31.0776 25.8682C31.1001 26.4523 31.1001 27.0363 31.1001 27.6203C30.6284 28.4066 30.1791 29.1928 29.7523 29.9565C29.3255 30.7427 28.8987 31.5514 28.5168 32.36C28.0227 33.3484 27.6183 34.3593 27.3038 35.415C26.9894 36.4708 26.8321 37.549 26.8321 38.6722C26.8321 38.9642 26.8546 39.2786 26.922 39.638C26.9894 39.9975 27.1017 40.3344 27.2589 40.6265C27.4162 40.9185 27.6183 41.1431 27.8879 41.3003C28.135 41.4576 28.4495 41.4576 28.8313 41.3003C29.2357 41.1431 29.6175 40.8736 29.9994 40.4692C30.3813 40.0649 30.7182 39.638 31.0102 39.1888C31.5494 38.425 31.9312 37.5939 32.2008 36.6954C32.4703 35.7969 32.695 34.8984 32.8522 33.9999C33.0544 32.9666 33.1667 31.8883 33.1891 30.8325C33.2341 29.7543 33.2341 28.6761 33.1891 27.5979C33.5935 26.9465 33.9529 26.3849 34.2674 25.9132C34.5819 25.4414 34.8739 24.9697 35.1659 24.5204C35.2333 24.3857 35.3231 24.2509 35.3905 24.1161C35.4804 24.5878 35.5927 25.0371 35.7724 25.4639C35.9746 25.9356 36.2217 26.3624 36.5586 26.7218C36.8956 27.1037 37.2999 27.3508 37.7716 27.508C38.2658 27.6653 38.7151 27.6653 39.1194 27.5305C39.5237 27.3957 39.9056 27.1711 40.2426 26.8791C40.5795 26.587 40.8715 26.2276 41.1186 25.8008C41.3657 25.3965 41.5679 24.9697 41.7476 24.5654C41.8374 24.3632 41.9273 24.1835 41.9947 23.9813C42.0845 23.7791 42.1519 23.577 42.2418 23.3524C42.3092 23.3524 42.4439 23.3524 42.6236 23.3524C42.8033 23.3524 43.0055 23.3074 43.2526 23.1951C43.4997 23.1053 43.7468 22.948 44.0163 22.7234C44.1736 22.5886 44.3533 22.4089 44.5105 22.2068C44.5105 22.6111 44.5555 23.0154 44.6453 23.4422C44.7127 23.8016 44.8475 24.161 45.0496 24.498C45.2518 24.8349 45.4989 25.1045 45.7909 25.3066C46.0829 25.5088 46.3974 25.6211 46.7344 25.6211C47.0713 25.6211 47.4083 25.4863 47.7677 25.1943C48.0597 24.9472 48.3068 24.6777 48.5314 24.3632C48.7561 24.0487 48.9582 23.7342 49.1379 23.3973C49.3176 23.0603 49.4749 22.7009 49.6321 22.3415C49.7669 21.9821 49.9241 21.6227 50.1038 21.2857C50.1488 21.1734 50.1937 21.0836 50.2386 20.9937C50.2835 20.9039 50.306 20.814 50.3509 20.7017C50.3285 20.9713 50.3285 21.2184 50.3285 21.4205C50.3285 21.6227 50.3285 21.8249 50.3285 22.0046C50.3285 22.2068 50.3285 22.3864 50.3285 22.5886C50.3285 22.7908 50.3285 23.0379 50.306 23.3074C49.9241 23.7791 49.5422 24.2509 49.1828 24.7451C48.8234 25.2168 48.464 25.711 48.1046 26.2276C47.4757 27.1261 46.9141 28.0696 46.4423 29.0355C45.9706 30.0014 45.5888 31.0347 45.2967 32.0905C45.2069 32.4724 45.117 32.8992 45.0496 33.326C44.9823 33.7528 44.9823 34.1796 45.0272 34.6063C45.0721 35.0107 45.162 35.415 45.3417 35.7969C45.4989 36.1788 45.7685 36.5157 46.1054 36.8077C46.4873 37.1447 46.8467 37.3244 47.2061 37.3468C47.5655 37.3693 47.9024 37.3019 48.2394 37.1222C48.5763 36.9425 48.8908 36.6954 49.2053 36.3809C49.5198 36.0664 49.8343 35.707 50.1263 35.3476C50.4632 34.9658 50.7328 34.5165 50.935 33.9999C51.1596 33.4832 51.3393 32.9665 51.4741 32.405C51.6313 31.8434 51.7436 31.3043 51.8335 30.7427C51.9233 30.1811 51.9907 29.6645 52.0581 29.1703C52.1704 28.2269 52.2603 27.2834 52.3052 26.3624C52.3501 25.4414 52.3951 24.498 52.44 23.5545C52.8219 23.0828 53.2037 22.6111 53.5856 22.1169C53.9675 21.6452 54.3044 21.1285 54.6189 20.6119C54.8885 20.1626 55.1805 19.7358 55.4725 19.309C55.7645 18.8822 56.0341 18.433 56.3036 17.9837C56.5507 17.512 56.7754 17.0627 56.9551 16.6135C57.1348 16.1642 57.3145 15.67 57.4717 15.1758C57.584 14.8389 57.6065 14.5918 57.5166 14.4121C57.4268 14.2773 57.3145 14.1874 57.1123 14.2099ZM30.8979 33.4158C30.7856 34.202 30.6508 34.9433 30.4711 35.6846C30.2914 36.4034 30.0668 37.0773 29.7748 37.7063C29.5052 38.3352 29.1683 38.8743 28.8089 39.3236C28.7415 39.391 28.6516 39.4808 28.5842 39.5482C28.5168 39.6156 28.4494 39.683 28.3596 39.7504C28.3147 39.7504 28.2697 39.6381 28.2248 39.3685C28.1799 39.1214 28.2024 38.6497 28.3371 37.9983C28.4719 37.3469 28.719 36.4708 29.1233 35.3701C29.5277 34.2694 30.1791 32.8767 31.0552 31.2144C31.0552 31.1919 31.0552 31.1695 31.1001 31.1246C31.0552 31.8659 30.9878 32.6296 30.8979 33.4158ZM39.8831 24.4531C39.6585 24.9023 39.4114 25.2842 39.1643 25.5762C38.9172 25.8682 38.6701 26.0704 38.423 26.1378C38.176 26.2052 37.9738 26.0929 37.7716 25.8008C37.547 25.4414 37.4347 24.9922 37.4347 24.4531C37.4122 23.9139 37.4571 23.3748 37.5245 22.8582C37.5919 22.3415 37.6818 21.8698 37.7941 21.4655C37.9064 21.0611 37.9738 20.814 38.0187 20.7467C38.0861 20.859 38.1535 20.9713 38.1984 21.0836C38.2433 21.1959 38.3107 21.2857 38.3781 21.3981C38.8723 22.2067 39.5687 22.7683 40.4672 23.0828C40.3324 23.5321 40.1302 24.0038 39.8831 24.4531ZM41.2983 20.2075C41.2309 20.5669 41.1186 21.0162 40.9838 21.5553C40.9164 21.5329 40.8715 21.5104 40.8041 21.4879C40.7592 21.4655 40.6918 21.443 40.6244 21.4205C40.3773 21.3082 40.1527 21.151 39.9955 20.9263C39.8382 20.7242 39.7259 20.4771 39.681 20.23C39.6136 19.9829 39.5911 19.7133 39.5911 19.4438C39.5911 19.1742 39.636 18.9271 39.681 18.7025C39.7484 18.4779 39.8831 18.2533 40.0628 18.0511C40.265 17.8489 40.4896 17.7141 40.7592 17.6917C40.894 17.6692 41.0063 17.7591 41.0737 17.8938C41.1635 18.0511 41.2085 18.2308 41.2534 18.433C41.2983 18.6351 41.3208 18.8373 41.3432 19.017C41.3657 19.1967 41.3657 19.3315 41.3657 19.4213C41.3882 19.5786 41.3657 19.8481 41.2983 20.2075ZM49.9915 29.1254C49.8792 30.0464 49.6995 30.9449 49.4524 31.821C49.3176 32.2927 49.1604 32.7419 48.9807 33.1912C48.801 33.6404 48.5988 34.0672 48.3742 34.494C48.3068 34.6288 48.1945 34.8085 48.0148 35.0331C47.8351 35.2578 47.6554 35.4599 47.4532 35.6172C47.251 35.7744 47.0489 35.8418 46.8692 35.8418C46.6894 35.8418 46.5771 35.6621 46.5322 35.3252C46.4648 34.8984 46.4648 34.4491 46.5097 33.9774C46.5547 33.5056 46.667 33.0339 46.8018 32.5622C46.9365 32.0905 47.0938 31.6412 47.296 31.2144C47.4757 30.7876 47.6778 30.3833 47.8575 30.0239C48.1945 29.3725 48.5763 28.7435 48.9582 28.1145C49.3401 27.508 49.7669 26.9015 50.2386 26.3175C50.1712 27.2834 50.1038 28.2269 49.9915 29.1254Z" fill="#2D2D2D"/>
<path d="M64.7947 1.15792C64.615 0.93329 64.3903 0.75358 64.1432 0.618802C63.8962 0.484023 63.649 0.439108 63.402 0.461571C63.1549 0.484034 62.9976 0.641276 62.9302 0.910832C62.7056 1.74197 62.481 2.73033 62.2339 3.87594C61.9868 4.9991 61.7622 6.18964 61.56 7.44757C61.3354 8.7055 61.1332 9.96345 60.931 11.2214C60.7289 12.4793 60.5492 13.6474 60.4144 14.7256C60.2571 15.8038 60.1448 16.7248 60.0325 17.511C59.9202 18.2972 59.8753 18.8363 59.8753 19.1284C59.8753 19.2407 59.9202 19.3755 60.0325 19.5102C60.1448 19.645 60.2796 19.7573 60.4368 19.8696C60.5941 19.9595 60.7513 20.0269 60.9086 20.0269C61.0658 20.0269 61.1781 19.937 61.223 19.7798C61.4477 19.2407 61.6274 18.6117 61.7846 17.9153C61.9419 17.219 62.0766 16.5676 62.2339 15.9611C62.2788 15.6915 62.3687 15.2423 62.5034 14.5908C62.6382 13.9394 62.773 13.1756 62.9302 12.2996C63.0875 11.4235 63.2672 10.4801 63.4694 9.49171C63.6491 8.48087 63.8288 7.51496 64.0309 6.54905C64.2106 5.6056 64.3903 4.70708 64.5476 3.87594C64.7048 3.04481 64.8621 2.3934 64.9744 1.87675C65.0418 1.62966 64.9744 1.38255 64.7947 1.15792Z" fill="#2D2D2D"/>
<path d="M60.7064 20.6778C60.5042 20.5205 60.2347 20.4082 59.9202 20.3857C59.8752 20.3857 59.8303 20.3857 59.7854 20.3857C59.7405 20.4082 59.6955 20.4082 59.6731 20.4082C59.5832 20.4082 59.4934 20.4532 59.4035 20.5205C59.3137 20.5879 59.2687 20.6778 59.2463 20.7901L59.2238 20.8575C59.2238 20.9024 59.2014 20.9249 59.2014 20.9249C59.2014 20.9473 59.1789 20.9698 59.1789 20.9923C59.089 21.2843 59.134 21.5763 59.3137 21.8908C59.4709 22.2053 59.6955 22.385 59.9651 22.4748C60.0999 22.5197 60.1897 22.5647 60.2796 22.5871C60.3694 22.6096 60.4593 22.6321 60.5716 22.6545C60.6615 22.677 60.7513 22.6545 60.8187 22.632C60.8861 22.6096 60.9759 22.5647 61.0433 22.5422C61.1332 22.4973 61.2006 22.4299 61.268 22.34C61.3129 22.2502 61.3578 22.1603 61.3803 22.048C61.4252 21.7785 61.3803 21.5314 61.2455 21.2618C61.1332 21.0596 60.931 20.8575 60.7064 20.6778Z" fill="#2D2D2D"/>
</svg>
