<svg width="42" height="61" viewBox="0 0 42 61" fill="none" xmlns="http://www.w3.org/2000/svg">
<rect x="5" y="1" width="30" height="12" fill="white"/>
<rect x="1.72488" y="17.9258" width="37" height="12" transform="rotate(-2.84611 1.72488 17.9258)" fill="white"/>
<rect x="5.84869" y="33.4004" width="30.0524" height="11.1136" transform="rotate(-3.84536 5.84869 33.4004)" fill="white"/>
<rect x="4.63376" y="48.1357" width="33.8708" height="11.6278" transform="rotate(-2.25593 4.63376 48.1357)" fill="white"/>
<path d="M9.51117 7.04288C9.4911 4.21361 9.27037 4.11328 8.04636 4.11328V9.97248C9.29043 9.97248 9.51117 9.87215 9.51117 7.04288Z" fill="#2D2D2D"/>
<path d="M37.2822 14.0059L37.2621 0L2.9296 0.0601948L2.94966 14.0661L37.2822 14.0059ZM34.172 2.42795V4.21381H32.3259L32.346 11.598H30.2993L30.2792 4.21381H28.4332V2.42795H34.172ZM27.6907 2.42795L27.4299 5.37762H26.246L25.9852 2.42795H27.6907ZM21.049 2.44802L23.1759 7.22367V2.42795H25.2226L25.2427 11.598H23.196L21.0891 7.06315V11.598H19.0424L19.0223 2.42795L21.049 2.44802ZM15.2901 2.30756C18.0592 2.30756 18.2598 3.71216 18.2598 7.04308C18.2598 10.4944 18.0592 11.7585 15.3102 11.7786C12.5411 11.7786 12.3404 10.5145 12.3404 7.06315C12.3204 3.71217 12.521 2.30756 15.2901 2.30756ZM8.44768 2.46809C11.0161 2.46809 11.5378 3.49144 11.5579 7.04308C11.5579 6.98288 11.5579 6.94275 11.5579 6.88255V7.18354C11.5579 7.12334 11.5579 7.08321 11.5579 7.02301C11.5579 10.5747 11.0362 11.598 8.46774 11.6181H6.03979L6.01973 2.44802L8.44768 2.46809Z" fill="#2D2D2D"/>
<path d="M15.2901 9.99264C15.9322 9.99264 16.0125 9.59132 16.0125 7.04297C16.0125 4.55482 15.9322 4.07324 15.2901 4.07324C14.648 4.07324 14.5677 4.55482 14.5677 7.04297C14.5878 9.59132 14.6681 9.99264 15.2901 9.99264Z" fill="#2D2D2D"/>
<path d="M11.1164 19.8649C10.4743 19.8849 10.4141 20.3665 10.5145 22.8547C10.6148 25.403 10.7151 25.7843 11.3572 25.7642C11.9993 25.7441 12.0595 25.3428 11.9592 22.7945C11.8589 20.3063 11.7586 19.8448 11.1164 19.8649Z" fill="#2D2D2D"/>
<path d="M40.894 14.5879L0 16.2734L0.581912 30.2592L41.4759 28.5737L40.894 14.5879ZM5.23716 22.1326L6.82236 22.0724L6.90262 23.8583L5.31742 23.9185L5.47794 27.6306L3.43124 27.7109L3.04998 18.5609L7.30394 18.3803L7.38418 20.1662L5.15689 20.2665L5.23716 22.1326ZM11.4375 27.5504C8.68847 27.6708 8.4276 26.4066 8.28714 22.9553C8.14668 19.6244 8.28715 18.1997 11.0562 18.0793C13.8052 17.9589 14.0861 19.3635 14.2065 22.6945C14.347 26.1658 14.1865 27.43 11.4375 27.5504ZM18.5809 27.1089C18.3602 26.226 18.6411 24.4402 17.8184 23.6777L17.076 23.7178L17.2164 27.1691L15.1697 27.2494L14.7885 18.0994L16.8352 18.0191C19.2431 17.9188 20.1059 18.7616 20.1861 20.6879C20.2263 21.7313 20.0657 22.5139 19.5039 22.8951C20.6075 23.6777 20.3266 26.0053 20.6477 27.0287L18.5809 27.1089ZM26.246 26.7879L26.0654 26.1859C25.624 26.6875 24.9618 26.9885 24.099 27.0287C21.3901 27.1491 20.9687 26.0254 20.8082 22.4336C20.6677 18.9622 21.049 17.678 23.6977 17.5576C25.7042 17.4773 26.567 18.7415 26.6473 20.6277L24.42 20.728C24.3799 19.9053 24.2394 19.3435 23.6776 19.3635C23.0355 19.3836 22.9552 19.8652 23.0556 22.3533C23.1559 24.9017 23.2763 25.2829 23.9184 25.2629C24.4601 25.2428 24.5806 24.7412 24.5605 23.9385L24.5404 23.5372L23.818 23.5773L23.7579 21.932L26.7276 21.8116L26.9282 26.7879H26.246ZM27.6907 26.7277L27.3095 17.5777L31.5634 17.3971L31.6437 19.183L29.4164 19.2833L29.4967 21.0892L31.0819 21.029L31.1621 22.8148L29.5769 22.875L29.6572 24.8816L31.8845 24.7813L31.9647 26.5671L27.6907 26.7277ZM36.5799 26.3464L34.5332 26.4267L34.2322 19.0625L32.4062 19.1428L32.3259 17.357L38.0246 17.1162L38.1049 18.902L36.2789 18.9823L36.5799 26.3464Z" fill="#2D2D2D"/>
<path d="M16.8954 19.6643L17.0157 22.3531C17.999 22.313 18.1996 22.0521 18.1595 21.0288C18.0993 19.9854 17.8786 19.6041 16.8954 19.6643Z" fill="#2D2D2D"/>
<path d="M17.1963 41.0745C17.8384 41.0344 17.8786 40.6331 17.698 38.0847C17.5174 35.5966 17.4171 35.135 16.7749 35.1752C16.1328 35.2153 16.0927 35.6969 16.2733 38.185C16.4338 40.7334 16.5542 41.1347 17.1963 41.0745Z" fill="#2D2D2D"/>
<path d="M26.4868 38.0646L26.6473 40.3722C27.6305 40.2919 28.092 40.1314 28.0118 39.108C27.9315 38.0847 27.47 37.9844 26.4868 38.0646Z" fill="#2D2D2D"/>
<path d="M27.5102 35.5964C27.4299 34.5731 27.2292 34.4527 26.246 34.5329L26.4065 36.8405C27.3898 36.7803 27.5704 36.6198 27.5102 35.5964Z" fill="#2D2D2D"/>
<path d="M5.11678 46.0113L38.6467 43.6035L37.6434 29.6377L4.11349 32.0456L5.11678 46.0113ZM34.6134 32.2663L34.7338 34.0522L32.5266 34.2127L32.647 36.0186L34.2121 35.8982L34.3325 37.6841L32.7674 37.8044L32.9078 39.811L35.1151 39.6505L35.2355 41.4363L30.9815 41.7373L30.3194 32.5874L34.6134 32.2663ZM26.1056 32.8883C28.4934 32.7077 29.3763 33.2696 29.5167 35.1959C29.597 36.2393 29.4565 36.9015 28.8746 37.3028C29.4967 37.6439 29.9582 37.9248 30.0585 39.3094C30.219 41.4564 28.995 41.8778 26.7477 42.0383L24.721 42.1788L24.0589 33.0288L26.1056 32.8883ZM16.6345 33.41C19.3835 33.2094 19.6845 34.614 19.9253 37.9248C20.1661 41.3761 20.0658 42.6403 17.3167 42.8409C14.5677 43.0416 14.2668 41.7775 14.026 38.3462C13.7852 35.0354 13.8855 33.6107 16.6345 33.41ZM13.1832 33.8114L13.3036 35.5972L11.4776 35.7377L11.9993 43.1018L9.97268 43.2423L9.45098 35.8781L7.625 36.0186L7.50461 34.2328L13.1832 33.8114Z" fill="#2D2D2D"/>
<path d="M21.5305 50.305L21.651 53.2546C22.6342 53.2145 22.8348 52.8132 22.7947 51.7898C22.7345 50.7665 22.5138 50.2648 21.5305 50.305Z" fill="#2D2D2D"/>
<path d="M15.2901 55.0196L16.3335 54.9795L15.6914 51.7891L15.2901 55.0196Z" fill="#2D2D2D"/>
<path d="M27.5703 50.0638L27.6907 53.0134C28.674 52.9733 28.8746 52.572 28.8345 51.5486C28.7743 50.5253 28.5536 50.0236 27.5703 50.0638Z" fill="#2D2D2D"/>
<path d="M2.70886 47.0139L3.29077 60.9997L41.3354 59.4146L40.7535 45.4287L2.70886 47.0139ZM10.073 58.2909L9.93253 54.6991L8.56805 54.7593L8.70853 58.3511L6.66181 58.4313L6.28055 49.2814L8.32727 49.2011L8.48778 52.9935L9.85226 52.9333L9.69173 49.1409L11.7385 49.0606L12.1197 58.2106L10.073 58.2909ZM16.9756 58.01L16.6947 56.6254L15.0894 56.6856L14.9088 58.0902L12.8621 58.1705L14.5276 48.9202L16.5743 48.8399L19.0022 57.9096L16.9756 58.01ZM21.7111 54.8797L21.8315 57.8093L19.7848 57.8895L19.4036 48.7396L21.4503 48.6593C23.8582 48.559 24.721 49.6626 24.8213 51.7093C24.9016 53.6356 24.0989 54.7793 21.7111 54.8797ZM27.7509 54.6188L27.8713 57.5484L25.8246 57.6287L25.4433 48.4787L27.4901 48.3985C29.898 48.2981 30.7608 49.4017 30.8611 51.4484C30.9414 53.3747 30.1588 54.5185 27.7509 54.6188ZM35.5163 57.2474L33.4696 57.3277L33.3091 53.2343L30.8611 48.258L33.0081 48.1777L34.2322 51.2678L35.1953 48.0975L37.3423 48.0172L35.3157 53.1741L35.5163 57.2474Z" fill="#2D2D2D"/>
</svg>
